# xmcd
#
# Track frame offsets:
#	150
#	12129
#	21690
#	33199
#	45860
#	55110
#	69019
#	80359
#	93386
#	105422
#	119864
#	131383
#	137514
#	147407
#	158781
#	171301
#
# Disc length: 2415 seconds
#
# Revision: 1
# Processed by: cddbd v1.5.2PL0 Copyright (c) Steve Scherf et al.
# Submitted via: audiograbber 1.83.01
#
DISCID=cb096d10
DTITLE=Various Artist - Country Legends CD1 Rawhide
DYEAR=2005
DGENRE=Country
TTITLE0=Conway Twitty - Linda On My Mind
TTITLE1=Dave Dudley - Six Days On The Road
TTITLE2=Patsy Cline - Walkin' After Midnight
TTITLE3=Rex Allen Junior - Country Comfort
TTITLE4=Frankie Laine - Rawhide
TTITLE5=Patti Page - The Tennessee Waltz
TTITLE6=Johnny Cash - Oh Lonesome Me
TTITLE7=Faron Young - Apartment No. 9
TTITLE8=Skeeter Davis - I Can't Help You I'm Falling Too
TTITLE9=Freddy Fender - Wild Side Of Life
TTITLE10=Lynn Anderson - Listen To A Country Song
TTITLE11=Loretta Lynn - I Fall To Pieces
TTITLE12=Willie Nelson - Let's Pretend
TTITLE13=Jeannie C. Riley - Box Of Memories
TTITLE14=Charlie Rich - Behind Closed Doors
TTITLE15=Billie Jo Spears - My Arms Stay Open Late
EXTD=
EXTT0=
EXTT1=
EXTT2=
EXTT3=
EXTT4=
EXTT5=
EXTT6=
EXTT7=
EXTT8=
EXTT9=
EXTT10=
EXTT11=
EXTT12=
EXTT13=
EXTT14=
EXTT15=
PLAYORDER=
